<mxfile host="app.diagrams.net" modified="2023-09-21T19:20:33.900Z" agent="Mozilla/5.0 (X11; Linux x86_64; rv:102.0) Gecko/20100101 Firefox/102.0" etag="uiEcWAmKrtGYPBwVezj5" version="21.8.0" type="github">
  <diagram id="k9q1beLyv9SD3Y5J-64U" name="Página-4">
    <mxGraphModel dx="1793" dy="783" grid="1" gridSize="10" guides="1" tooltips="1" connect="1" arrows="1" fold="1" page="1" pageScale="1" pageWidth="827" pageHeight="1169" math="0" shadow="0">
      <root>
        <mxCell id="0" />
        <mxCell id="1" parent="0" />
        <mxCell id="RVBa7guuc6xRz4GlShDP-1" value="&lt;font style=&quot;font-size: 24px;&quot;&gt;DIAGRAMA ENTIDAD-RELACIÓN&lt;/font&gt;" style="text;html=1;align=center;verticalAlign=middle;resizable=0;points=[];autosize=1;strokeColor=none;fillColor=none;" vertex="1" parent="1">
          <mxGeometry x="190" y="30" width="390" height="40" as="geometry" />
        </mxCell>
        <mxCell id="RVBa7guuc6xRz4GlShDP-2" value="Proveedor" style="whiteSpace=wrap;html=1;fillColor=#dae8fc;strokeColor=#6c8ebf;" vertex="1" parent="1">
          <mxGeometry x="30" y="460" width="120" height="60" as="geometry" />
        </mxCell>
        <mxCell id="RVBa7guuc6xRz4GlShDP-3" value="" style="edgeStyle=orthogonalEdgeStyle;rounded=0;orthogonalLoop=1;jettySize=auto;html=1;endArrow=none;endFill=0;" edge="1" parent="1" source="RVBa7guuc6xRz4GlShDP-5" target="RVBa7guuc6xRz4GlShDP-6">
          <mxGeometry relative="1" as="geometry" />
        </mxCell>
        <mxCell id="RVBa7guuc6xRz4GlShDP-4" style="edgeStyle=orthogonalEdgeStyle;rounded=0;orthogonalLoop=1;jettySize=auto;html=1;entryX=1;entryY=0.5;entryDx=0;entryDy=0;endArrow=none;endFill=0;" edge="1" parent="1" source="RVBa7guuc6xRz4GlShDP-5" target="RVBa7guuc6xRz4GlShDP-2">
          <mxGeometry relative="1" as="geometry" />
        </mxCell>
        <mxCell id="RVBa7guuc6xRz4GlShDP-5" value="Provee" style="rhombus;whiteSpace=wrap;html=1;fillColor=#d5e8d4;strokeColor=#82b366;" vertex="1" parent="1">
          <mxGeometry x="270" y="450" width="80" height="80" as="geometry" />
        </mxCell>
        <mxCell id="RVBa7guuc6xRz4GlShDP-6" value="Producto" style="whiteSpace=wrap;html=1;fillColor=#dae8fc;strokeColor=#6c8ebf;" vertex="1" parent="1">
          <mxGeometry x="460" y="460" width="120" height="60" as="geometry" />
        </mxCell>
        <mxCell id="RVBa7guuc6xRz4GlShDP-7" value="" style="edgeStyle=orthogonalEdgeStyle;rounded=0;orthogonalLoop=1;jettySize=auto;html=1;endArrow=none;endFill=0;" edge="1" parent="1" source="RVBa7guuc6xRz4GlShDP-8" target="RVBa7guuc6xRz4GlShDP-9">
          <mxGeometry relative="1" as="geometry" />
        </mxCell>
        <mxCell id="RVBa7guuc6xRz4GlShDP-8" value="Cliente" style="whiteSpace=wrap;html=1;fillColor=#dae8fc;strokeColor=#6c8ebf;" vertex="1" parent="1">
          <mxGeometry x="470" y="150" width="120" height="60" as="geometry" />
        </mxCell>
        <mxCell id="RVBa7guuc6xRz4GlShDP-9" value="Compra" style="rhombus;whiteSpace=wrap;html=1;fillColor=#d5e8d4;strokeColor=#82b366;" vertex="1" parent="1">
          <mxGeometry x="490" y="300" width="80" height="80" as="geometry" />
        </mxCell>
        <mxCell id="RVBa7guuc6xRz4GlShDP-10" value="" style="edgeStyle=orthogonalEdgeStyle;rounded=0;orthogonalLoop=1;jettySize=auto;html=1;endArrow=none;endFill=0;" edge="1" parent="1" source="RVBa7guuc6xRz4GlShDP-11" target="RVBa7guuc6xRz4GlShDP-12">
          <mxGeometry relative="1" as="geometry" />
        </mxCell>
        <mxCell id="RVBa7guuc6xRz4GlShDP-11" value="Se organiza" style="rhombus;whiteSpace=wrap;html=1;fillColor=#d5e8d4;strokeColor=#82b366;" vertex="1" parent="1">
          <mxGeometry x="470" y="640" width="80" height="80" as="geometry" />
        </mxCell>
        <mxCell id="RVBa7guuc6xRz4GlShDP-12" value="Categoría" style="whiteSpace=wrap;html=1;fillColor=#dae8fc;strokeColor=#6c8ebf;" vertex="1" parent="1">
          <mxGeometry x="430" y="810" width="120" height="60" as="geometry" />
        </mxCell>
        <mxCell id="RVBa7guuc6xRz4GlShDP-13" value="" style="edgeStyle=orthogonalEdgeStyle;rounded=0;orthogonalLoop=1;jettySize=auto;html=1;endArrow=none;endFill=0;" edge="1" parent="1" source="RVBa7guuc6xRz4GlShDP-15" target="RVBa7guuc6xRz4GlShDP-16">
          <mxGeometry relative="1" as="geometry" />
        </mxCell>
        <mxCell id="RVBa7guuc6xRz4GlShDP-14" style="edgeStyle=orthogonalEdgeStyle;rounded=0;orthogonalLoop=1;jettySize=auto;html=1;entryX=1;entryY=0.5;entryDx=0;entryDy=0;endArrow=none;endFill=0;" edge="1" parent="1" source="RVBa7guuc6xRz4GlShDP-15" target="RVBa7guuc6xRz4GlShDP-6">
          <mxGeometry relative="1" as="geometry" />
        </mxCell>
        <mxCell id="RVBa7guuc6xRz4GlShDP-15" value="Registra" style="rhombus;whiteSpace=wrap;html=1;fillColor=#d5e8d4;strokeColor=#82b366;" vertex="1" parent="1">
          <mxGeometry x="680" y="450" width="80" height="70" as="geometry" />
        </mxCell>
        <mxCell id="RVBa7guuc6xRz4GlShDP-16" value="Venta" style="whiteSpace=wrap;html=1;fillColor=#dae8fc;strokeColor=#6c8ebf;" vertex="1" parent="1">
          <mxGeometry x="660" y="610" width="120" height="60" as="geometry" />
        </mxCell>
        <mxCell id="RVBa7guuc6xRz4GlShDP-17" style="edgeStyle=orthogonalEdgeStyle;rounded=0;orthogonalLoop=1;jettySize=auto;html=1;entryX=0.575;entryY=0;entryDx=0;entryDy=0;entryPerimeter=0;endArrow=none;endFill=0;" edge="1" parent="1" source="RVBa7guuc6xRz4GlShDP-9" target="RVBa7guuc6xRz4GlShDP-6">
          <mxGeometry relative="1" as="geometry" />
        </mxCell>
        <mxCell id="RVBa7guuc6xRz4GlShDP-18" style="edgeStyle=orthogonalEdgeStyle;rounded=0;orthogonalLoop=1;jettySize=auto;html=1;entryX=0.417;entryY=1.05;entryDx=0;entryDy=0;entryPerimeter=0;endArrow=none;endFill=0;" edge="1" parent="1" source="RVBa7guuc6xRz4GlShDP-11" target="RVBa7guuc6xRz4GlShDP-6">
          <mxGeometry relative="1" as="geometry" />
        </mxCell>
        <mxCell id="RVBa7guuc6xRz4GlShDP-20" value="Web" style="ellipse;whiteSpace=wrap;html=1;" vertex="1" parent="1">
          <mxGeometry y="340" width="70" height="40" as="geometry" />
        </mxCell>
        <mxCell id="RVBa7guuc6xRz4GlShDP-21" value="Teléfono" style="ellipse;whiteSpace=wrap;html=1;" vertex="1" parent="1">
          <mxGeometry x="150" y="400" width="60" height="40" as="geometry" />
        </mxCell>
        <mxCell id="RVBa7guuc6xRz4GlShDP-22" value="Dirección" style="ellipse;whiteSpace=wrap;html=1;" vertex="1" parent="1">
          <mxGeometry x="10" y="585" width="60" height="30" as="geometry" />
        </mxCell>
        <mxCell id="RVBa7guuc6xRz4GlShDP-23" value="Nombre" style="ellipse;whiteSpace=wrap;html=1;" vertex="1" parent="1">
          <mxGeometry x="80" y="360" width="60" height="40" as="geometry" />
        </mxCell>
        <mxCell id="RVBa7guuc6xRz4GlShDP-29" style="edgeStyle=orthogonalEdgeStyle;rounded=0;orthogonalLoop=1;jettySize=auto;html=1;entryX=0.75;entryY=1;entryDx=0;entryDy=0;endArrow=none;endFill=0;" edge="1" parent="1" source="RVBa7guuc6xRz4GlShDP-24" target="RVBa7guuc6xRz4GlShDP-2">
          <mxGeometry relative="1" as="geometry" />
        </mxCell>
        <mxCell id="RVBa7guuc6xRz4GlShDP-24" value="&lt;b&gt;&lt;u&gt;ID&lt;/u&gt;&lt;/b&gt;" style="ellipse;whiteSpace=wrap;html=1;" vertex="1" parent="1">
          <mxGeometry x="100" y="550" width="50" height="20" as="geometry" />
        </mxCell>
        <mxCell id="RVBa7guuc6xRz4GlShDP-25" style="edgeStyle=orthogonalEdgeStyle;rounded=0;orthogonalLoop=1;jettySize=auto;html=1;entryX=1.008;entryY=0.117;entryDx=0;entryDy=0;entryPerimeter=0;endArrow=none;endFill=0;" edge="1" parent="1" source="RVBa7guuc6xRz4GlShDP-21" target="RVBa7guuc6xRz4GlShDP-2">
          <mxGeometry relative="1" as="geometry" />
        </mxCell>
        <mxCell id="RVBa7guuc6xRz4GlShDP-26" style="edgeStyle=orthogonalEdgeStyle;rounded=0;orthogonalLoop=1;jettySize=auto;html=1;entryX=0.65;entryY=-0.017;entryDx=0;entryDy=0;entryPerimeter=0;endArrow=none;endFill=0;" edge="1" parent="1" source="RVBa7guuc6xRz4GlShDP-23" target="RVBa7guuc6xRz4GlShDP-2">
          <mxGeometry relative="1" as="geometry" />
        </mxCell>
        <mxCell id="RVBa7guuc6xRz4GlShDP-27" style="edgeStyle=orthogonalEdgeStyle;rounded=0;orthogonalLoop=1;jettySize=auto;html=1;entryX=0.083;entryY=-0.017;entryDx=0;entryDy=0;entryPerimeter=0;endArrow=none;endFill=0;" edge="1" parent="1" source="RVBa7guuc6xRz4GlShDP-20" target="RVBa7guuc6xRz4GlShDP-2">
          <mxGeometry relative="1" as="geometry" />
        </mxCell>
        <mxCell id="RVBa7guuc6xRz4GlShDP-28" style="edgeStyle=orthogonalEdgeStyle;rounded=0;orthogonalLoop=1;jettySize=auto;html=1;entryX=0.1;entryY=1;entryDx=0;entryDy=0;entryPerimeter=0;endArrow=none;endFill=0;" edge="1" parent="1" source="RVBa7guuc6xRz4GlShDP-22" target="RVBa7guuc6xRz4GlShDP-2">
          <mxGeometry relative="1" as="geometry" />
        </mxCell>
        <mxCell id="RVBa7guuc6xRz4GlShDP-36" style="edgeStyle=orthogonalEdgeStyle;rounded=0;orthogonalLoop=1;jettySize=auto;html=1;entryX=0;entryY=0.75;entryDx=0;entryDy=0;endArrow=none;endFill=0;" edge="1" parent="1" source="RVBa7guuc6xRz4GlShDP-32" target="RVBa7guuc6xRz4GlShDP-8">
          <mxGeometry relative="1" as="geometry" />
        </mxCell>
        <mxCell id="RVBa7guuc6xRz4GlShDP-32" value="Nombre" style="ellipse;whiteSpace=wrap;html=1;" vertex="1" parent="1">
          <mxGeometry x="350" y="170" width="70" height="30" as="geometry" />
        </mxCell>
        <mxCell id="RVBa7guuc6xRz4GlShDP-33" value="&lt;u&gt;&lt;b&gt;ID&lt;/b&gt;&lt;/u&gt;" style="ellipse;whiteSpace=wrap;html=1;" vertex="1" parent="1">
          <mxGeometry x="400" y="100" width="60" height="30" as="geometry" />
        </mxCell>
        <mxCell id="RVBa7guuc6xRz4GlShDP-35" style="edgeStyle=orthogonalEdgeStyle;rounded=0;orthogonalLoop=1;jettySize=auto;html=1;entryX=0.125;entryY=-0.033;entryDx=0;entryDy=0;entryPerimeter=0;endArrow=none;endFill=0;" edge="1" parent="1" source="RVBa7guuc6xRz4GlShDP-33" target="RVBa7guuc6xRz4GlShDP-8">
          <mxGeometry relative="1" as="geometry" />
        </mxCell>
        <mxCell id="RVBa7guuc6xRz4GlShDP-40" style="edgeStyle=orthogonalEdgeStyle;rounded=0;orthogonalLoop=1;jettySize=auto;html=1;entryX=1;entryY=0.5;entryDx=0;entryDy=0;endArrow=none;endFill=0;" edge="1" parent="1" source="RVBa7guuc6xRz4GlShDP-39" target="RVBa7guuc6xRz4GlShDP-8">
          <mxGeometry relative="1" as="geometry" />
        </mxCell>
        <mxCell id="RVBa7guuc6xRz4GlShDP-39" value="Dirección" style="ellipse;shape=doubleEllipse;margin=3;whiteSpace=wrap;html=1;align=center;" vertex="1" parent="1">
          <mxGeometry x="650" y="160" width="100" height="40" as="geometry" />
        </mxCell>
        <mxCell id="RVBa7guuc6xRz4GlShDP-41" value="Calle" style="ellipse;whiteSpace=wrap;html=1;" vertex="1" parent="1">
          <mxGeometry x="620" y="90" width="60" height="30" as="geometry" />
        </mxCell>
        <mxCell id="RVBa7guuc6xRz4GlShDP-42" value="Provincia" style="ellipse;whiteSpace=wrap;html=1;" vertex="1" parent="1">
          <mxGeometry x="640" y="242" width="60" height="30" as="geometry" />
        </mxCell>
        <mxCell id="RVBa7guuc6xRz4GlShDP-47" style="edgeStyle=orthogonalEdgeStyle;rounded=0;orthogonalLoop=1;jettySize=auto;html=1;entryX=1;entryY=0;entryDx=0;entryDy=0;endArrow=none;endFill=0;" edge="1" parent="1" source="RVBa7guuc6xRz4GlShDP-43" target="RVBa7guuc6xRz4GlShDP-39">
          <mxGeometry relative="1" as="geometry" />
        </mxCell>
        <mxCell id="RVBa7guuc6xRz4GlShDP-43" value="Nº" style="ellipse;whiteSpace=wrap;html=1;" vertex="1" parent="1">
          <mxGeometry x="720" y="80" width="60" height="30" as="geometry" />
        </mxCell>
        <mxCell id="RVBa7guuc6xRz4GlShDP-46" style="edgeStyle=orthogonalEdgeStyle;rounded=0;orthogonalLoop=1;jettySize=auto;html=1;entryX=1;entryY=1;entryDx=0;entryDy=0;endArrow=none;endFill=0;" edge="1" parent="1" source="RVBa7guuc6xRz4GlShDP-44" target="RVBa7guuc6xRz4GlShDP-39">
          <mxGeometry relative="1" as="geometry" />
        </mxCell>
        <mxCell id="RVBa7guuc6xRz4GlShDP-44" value="Ciudad" style="ellipse;whiteSpace=wrap;html=1;" vertex="1" parent="1">
          <mxGeometry x="730" y="242" width="60" height="30" as="geometry" />
        </mxCell>
        <mxCell id="RVBa7guuc6xRz4GlShDP-45" style="edgeStyle=orthogonalEdgeStyle;rounded=0;orthogonalLoop=1;jettySize=auto;html=1;entryX=0.24;entryY=1.05;entryDx=0;entryDy=0;entryPerimeter=0;endArrow=none;endFill=0;" edge="1" parent="1" source="RVBa7guuc6xRz4GlShDP-42" target="RVBa7guuc6xRz4GlShDP-39">
          <mxGeometry relative="1" as="geometry" />
        </mxCell>
        <mxCell id="RVBa7guuc6xRz4GlShDP-48" style="edgeStyle=orthogonalEdgeStyle;rounded=0;orthogonalLoop=1;jettySize=auto;html=1;entryX=0.2;entryY=0;entryDx=0;entryDy=0;entryPerimeter=0;endArrow=none;endFill=0;" edge="1" parent="1" source="RVBa7guuc6xRz4GlShDP-41" target="RVBa7guuc6xRz4GlShDP-39">
          <mxGeometry relative="1" as="geometry" />
        </mxCell>
        <mxCell id="RVBa7guuc6xRz4GlShDP-50" value="&lt;u&gt;&lt;b&gt;ID&lt;/b&gt;&lt;/u&gt;" style="ellipse;whiteSpace=wrap;html=1;" vertex="1" parent="1">
          <mxGeometry x="430" y="380" width="50" height="30" as="geometry" />
        </mxCell>
        <mxCell id="RVBa7guuc6xRz4GlShDP-59" style="edgeStyle=orthogonalEdgeStyle;rounded=0;orthogonalLoop=1;jettySize=auto;html=1;exitX=0.5;exitY=1;exitDx=0;exitDy=0;entryX=1;entryY=0;entryDx=0;entryDy=0;endArrow=none;endFill=0;" edge="1" parent="1" source="RVBa7guuc6xRz4GlShDP-51" target="RVBa7guuc6xRz4GlShDP-6">
          <mxGeometry relative="1" as="geometry" />
        </mxCell>
        <mxCell id="RVBa7guuc6xRz4GlShDP-51" value="&lt;div&gt;Nombre&lt;/div&gt;&lt;div&gt;proveedor&lt;br&gt;&lt;/div&gt;" style="ellipse;whiteSpace=wrap;html=1;" vertex="1" parent="1">
          <mxGeometry x="580" y="400" width="99" height="40" as="geometry" />
        </mxCell>
        <mxCell id="RVBa7guuc6xRz4GlShDP-55" style="edgeStyle=orthogonalEdgeStyle;rounded=0;orthogonalLoop=1;jettySize=auto;html=1;entryX=0;entryY=0.25;entryDx=0;entryDy=0;endArrow=none;endFill=0;" edge="1" parent="1" source="RVBa7guuc6xRz4GlShDP-52" target="RVBa7guuc6xRz4GlShDP-6">
          <mxGeometry relative="1" as="geometry" />
        </mxCell>
        <mxCell id="RVBa7guuc6xRz4GlShDP-52" value="Nombre" style="ellipse;whiteSpace=wrap;html=1;" vertex="1" parent="1">
          <mxGeometry x="370" y="410" width="50" height="30" as="geometry" />
        </mxCell>
        <mxCell id="RVBa7guuc6xRz4GlShDP-53" value="Stock" style="ellipse;whiteSpace=wrap;html=1;" vertex="1" parent="1">
          <mxGeometry x="370" y="545" width="60" height="40" as="geometry" />
        </mxCell>
        <mxCell id="RVBa7guuc6xRz4GlShDP-54" value="Precio" style="ellipse;whiteSpace=wrap;html=1;" vertex="1" parent="1">
          <mxGeometry x="540" y="550" width="50" height="25" as="geometry" />
        </mxCell>
        <mxCell id="RVBa7guuc6xRz4GlShDP-56" style="edgeStyle=orthogonalEdgeStyle;rounded=0;orthogonalLoop=1;jettySize=auto;html=1;entryX=0.15;entryY=0.05;entryDx=0;entryDy=0;entryPerimeter=0;endArrow=none;endFill=0;" edge="1" parent="1" source="RVBa7guuc6xRz4GlShDP-50" target="RVBa7guuc6xRz4GlShDP-6">
          <mxGeometry relative="1" as="geometry" />
        </mxCell>
        <mxCell id="RVBa7guuc6xRz4GlShDP-57" style="edgeStyle=orthogonalEdgeStyle;rounded=0;orthogonalLoop=1;jettySize=auto;html=1;entryX=0.142;entryY=1;entryDx=0;entryDy=0;entryPerimeter=0;endArrow=none;endFill=0;" edge="1" parent="1" source="RVBa7guuc6xRz4GlShDP-53" target="RVBa7guuc6xRz4GlShDP-6">
          <mxGeometry relative="1" as="geometry" />
        </mxCell>
        <mxCell id="RVBa7guuc6xRz4GlShDP-60" style="edgeStyle=orthogonalEdgeStyle;rounded=0;orthogonalLoop=1;jettySize=auto;html=1;entryX=0.892;entryY=1;entryDx=0;entryDy=0;entryPerimeter=0;endArrow=none;endFill=0;" edge="1" parent="1" source="RVBa7guuc6xRz4GlShDP-54" target="RVBa7guuc6xRz4GlShDP-6">
          <mxGeometry relative="1" as="geometry" />
        </mxCell>
        <mxCell id="RVBa7guuc6xRz4GlShDP-62" value="Monto final" style="ellipse;whiteSpace=wrap;html=1;" vertex="1" parent="1">
          <mxGeometry x="640" y="542.5" width="60" height="40" as="geometry" />
        </mxCell>
        <mxCell id="RVBa7guuc6xRz4GlShDP-63" value="Descuento" style="ellipse;whiteSpace=wrap;html=1;" vertex="1" parent="1">
          <mxGeometry x="740" y="537.5" width="60" height="50" as="geometry" />
        </mxCell>
        <mxCell id="RVBa7guuc6xRz4GlShDP-69" style="edgeStyle=orthogonalEdgeStyle;rounded=0;orthogonalLoop=1;jettySize=auto;html=1;entryX=0.75;entryY=1;entryDx=0;entryDy=0;endArrow=none;endFill=0;" edge="1" parent="1" source="RVBa7guuc6xRz4GlShDP-64" target="RVBa7guuc6xRz4GlShDP-16">
          <mxGeometry relative="1" as="geometry" />
        </mxCell>
        <mxCell id="RVBa7guuc6xRz4GlShDP-64" value="Cliente" style="ellipse;whiteSpace=wrap;html=1;" vertex="1" parent="1">
          <mxGeometry x="640" y="730" width="60" height="40" as="geometry" />
        </mxCell>
        <mxCell id="RVBa7guuc6xRz4GlShDP-65" value="Fecha" style="ellipse;whiteSpace=wrap;html=1;" vertex="1" parent="1">
          <mxGeometry x="570" y="700" width="50.5" height="40" as="geometry" />
        </mxCell>
        <mxCell id="RVBa7guuc6xRz4GlShDP-67" style="edgeStyle=orthogonalEdgeStyle;rounded=0;orthogonalLoop=1;jettySize=auto;html=1;entryX=0;entryY=0.25;entryDx=0;entryDy=0;endArrow=none;endFill=0;" edge="1" parent="1" source="RVBa7guuc6xRz4GlShDP-66" target="RVBa7guuc6xRz4GlShDP-16">
          <mxGeometry relative="1" as="geometry" />
        </mxCell>
        <mxCell id="RVBa7guuc6xRz4GlShDP-66" value="&lt;u&gt;&lt;b&gt;ID&lt;/b&gt;&lt;/u&gt;" style="ellipse;whiteSpace=wrap;html=1;" vertex="1" parent="1">
          <mxGeometry x="580" y="610" width="50" height="30" as="geometry" />
        </mxCell>
        <mxCell id="RVBa7guuc6xRz4GlShDP-68" style="edgeStyle=orthogonalEdgeStyle;rounded=0;orthogonalLoop=1;jettySize=auto;html=1;entryX=0.167;entryY=1;entryDx=0;entryDy=0;entryPerimeter=0;endArrow=none;endFill=0;" edge="1" parent="1" source="RVBa7guuc6xRz4GlShDP-65" target="RVBa7guuc6xRz4GlShDP-16">
          <mxGeometry relative="1" as="geometry">
            <Array as="points">
              <mxPoint x="620" y="670" />
            </Array>
          </mxGeometry>
        </mxCell>
        <mxCell id="RVBa7guuc6xRz4GlShDP-70" style="edgeStyle=orthogonalEdgeStyle;rounded=0;orthogonalLoop=1;jettySize=auto;html=1;entryX=0.883;entryY=-0.033;entryDx=0;entryDy=0;entryPerimeter=0;endArrow=none;endFill=0;" edge="1" parent="1" source="RVBa7guuc6xRz4GlShDP-63" target="RVBa7guuc6xRz4GlShDP-16">
          <mxGeometry relative="1" as="geometry" />
        </mxCell>
        <mxCell id="RVBa7guuc6xRz4GlShDP-71" style="edgeStyle=orthogonalEdgeStyle;rounded=0;orthogonalLoop=1;jettySize=auto;html=1;entryX=0.075;entryY=0.033;entryDx=0;entryDy=0;entryPerimeter=0;endArrow=none;endFill=0;" edge="1" parent="1" source="RVBa7guuc6xRz4GlShDP-62" target="RVBa7guuc6xRz4GlShDP-16">
          <mxGeometry relative="1" as="geometry" />
        </mxCell>
        <mxCell id="RVBa7guuc6xRz4GlShDP-79" style="edgeStyle=orthogonalEdgeStyle;rounded=0;orthogonalLoop=1;jettySize=auto;html=1;entryX=1;entryY=0.75;entryDx=0;entryDy=0;endArrow=none;endFill=0;" edge="1" parent="1" source="RVBa7guuc6xRz4GlShDP-73" target="RVBa7guuc6xRz4GlShDP-12">
          <mxGeometry relative="1" as="geometry" />
        </mxCell>
        <mxCell id="RVBa7guuc6xRz4GlShDP-73" value="Descripción" style="ellipse;whiteSpace=wrap;html=1;" vertex="1" parent="1">
          <mxGeometry x="590" y="830" width="100" height="50" as="geometry" />
        </mxCell>
        <mxCell id="RVBa7guuc6xRz4GlShDP-78" style="edgeStyle=orthogonalEdgeStyle;rounded=0;orthogonalLoop=1;jettySize=auto;html=1;entryX=0;entryY=0.75;entryDx=0;entryDy=0;endArrow=none;endFill=0;" edge="1" parent="1" source="RVBa7guuc6xRz4GlShDP-74" target="RVBa7guuc6xRz4GlShDP-12">
          <mxGeometry relative="1" as="geometry" />
        </mxCell>
        <mxCell id="RVBa7guuc6xRz4GlShDP-74" value="Nombre" style="ellipse;whiteSpace=wrap;html=1;" vertex="1" parent="1">
          <mxGeometry x="380" y="890" width="60" height="50" as="geometry" />
        </mxCell>
        <mxCell id="RVBa7guuc6xRz4GlShDP-76" style="edgeStyle=orthogonalEdgeStyle;rounded=0;orthogonalLoop=1;jettySize=auto;html=1;entryX=0;entryY=0.25;entryDx=0;entryDy=0;endArrow=none;endFill=0;" edge="1" parent="1" source="RVBa7guuc6xRz4GlShDP-75" target="RVBa7guuc6xRz4GlShDP-12">
          <mxGeometry relative="1" as="geometry" />
        </mxCell>
        <mxCell id="RVBa7guuc6xRz4GlShDP-75" value="&lt;u&gt;&lt;b&gt;ID&lt;/b&gt;&lt;/u&gt;" style="ellipse;whiteSpace=wrap;html=1;" vertex="1" parent="1">
          <mxGeometry x="340" y="800" width="60" height="40" as="geometry" />
        </mxCell>
      </root>
    </mxGraphModel>
  </diagram>
</mxfile>
